<svg xmlns="http://www.w3.org/2000/svg" xmlns:xlink="http://www.w3.org/1999/xlink" width="15.001" height="15.001" viewBox="0 0 15.001 15.001">
  <defs>
    <clipPath id="clip-path">
      <rect id="사각형_770" data-name="사각형 770" width="15.001" height="15.001" transform="translate(0 0)" fill="none"/>
    </clipPath>
  </defs>
  <g id="그룹_1180" data-name="그룹 1180" transform="translate(-35 2)">
    <g id="그룹_2027" data-name="그룹 2027" transform="translate(0 0)">
      <g id="그룹_2154" data-name="그룹 2154" transform="translate(35 -2)">
        <g id="그룹_2153" data-name="그룹 2153" clip-path="url(#clip-path)">
          <path id="패스_501" data-name="패스 501" d="M10.827,15a7.034,7.034,0,0,1-3.561-1.477,20.972,20.972,0,0,1-5.79-5.791C.2,5.83-.24,4.429.122,3.45A5.664,5.664,0,0,1,3.4.03a.92.92,0,0,1,.9.217C6.88,2.913,6.762,3.517,6.723,3.716a1.98,1.98,0,0,1-.5.8c-.745.891-1.013,1.4-.523,1.895L7.16,7.831,8.592,9.31c.493.486,1,.217,1.894-.526a1.992,1.992,0,0,1,.8-.5c.2-.038.8-.16,3.471,2.418a.918.918,0,0,1,.217.9,5.661,5.661,0,0,1-3.422,3.281,2.068,2.068,0,0,1-.722.122M3.641,1A4.714,4.714,0,0,0,1.059,3.8C.925,4.161.908,5.085,2.308,7.177a19.945,19.945,0,0,0,5.515,5.516c2.091,1.4,3.017,1.383,3.38,1.248A4.712,4.712,0,0,0,14,11.362a14.841,14.841,0,0,0-2.548-2.071c-.087.061-.222.173-.326.26-.654.547-2.015,1.683-3.242.466l-.008-.008L6.452,8.537,4.994,7.119c-1.225-1.232-.088-2.593.459-3.247.087-.105.2-.239.261-.326A15.17,15.17,0,0,0,3.641,1"/>
        </g>
      </g>
    </g>
  </g>
</svg>
